# Blender 4.5.3 LTS
# www.blender.org
mtllib Room215withAbs.mtl
o RoomVolume
v 0.000000 0.000000 0.000000
v 11.000000 0.000000 0.000000
v 0.000000 0.000000 -9.000000
v 11.000000 0.000000 -9.000000
v 0.000000 0.000000 -8.000000
v 11.000000 0.000000 -8.000000
v 11.000000 0.000000 -1.800000
v 0.000000 0.000000 -1.800000
v 3.200000 0.000000 0.000000
v 8.000000 0.000000 0.000000
v 0.000000 5.800000 -1.800000
v 0.000000 5.800000 0.000000
v 8.000000 5.800000 0.000000
v 11.000000 5.800000 0.000000
v 11.000000 5.800000 -8.000000
v 11.000000 5.800000 -9.000000
v 0.000000 5.800000 -9.000000
v 0.000000 5.800000 -8.000000
v 11.000000 5.800000 -1.800000
v 3.200000 5.800000 0.000000
v 11.000000 5.800000 -1.800000
v 11.000000 5.800000 -8.000000
v 0.000000 5.300000 -1.800000
v 0.000000 5.300000 -8.000000
v 11.000000 5.300000 -8.000000
v 11.000000 5.300000 -1.800000
vn -0.0000 -1.0000 -0.0000
vn -0.0000 -0.0000 -1.0000
vn -1.0000 -0.0000 -0.0000
vn -0.0000 1.0000 -0.0000
vn -0.0000 -0.0000 1.0000
vn 1.0000 -0.0000 -0.0000
vt 0.000000 0.000000
vt 0.000000 0.250000
vt 0.000000 0.500000
vt 0.000000 1.000000
vt 1.000000 1.000000
vt 1.000000 0.500000
vt 1.000000 0.250000
vt 1.000000 0.000000
vt 0.750000 0.000000
vt 0.500000 0.000000
vt 0.000000 0.125000
vt 0.500000 0.125000
vt 0.500000 0.250000
s 0
g RoomVolume_Glass
usemtl Glass
f 5/3/3 24/2/3 18/1/3 17/4/3 3/4/3
f 12/1/3 11/1/3 23/11/3 8/2/3 1/1/3
f 10/9/5 2/8/5 14/8/5 13/9/5
f 1/1/5 9/10/5 20/10/5 12/1/5
f 2/8/6 7/7/6 26/12/6 21/1/6 14/8/6
f 4/5/6 16/5/6 22/1/6 25/13/6 6/6/6
f 4/5/2 3/4/2 17/4/2 16/5/2
g RoomVolume_Plaster
usemtl Plaster
f 21/1/2 26/1/2 23/11/2 11/1/2
f 6/6/6 25/13/6 26/1/6 7/7/6
f 16/5/4 17/4/4 18/1/4 22/1/4
f 11/1/4 12/1/4 20/10/4 13/9/4 14/8/4 21/1/4
f 18/1/5 24/2/5 25/1/5 22/1/5
g RoomVolume_WallAbsorber
usemtl WallAbsorber
f 9/10/5 10/9/5 13/9/5 20/10/5
f 8/2/3 23/11/3 24/1/3 5/3/3
g RoomVolume_CeilingAbsorber
usemtl CeilingAbsorber
f 25/1/4 24/1/4 23/1/4 26/1/4
g RoomVolume_Pavement
usemtl Pavement
f 1/1/1 8/2/1 5/3/1 3/4/1 4/5/1 6/6/1 7/7/1 2/8/1 10/9/1 9/10/1
l 15 16
l 14 19
l 22 15
l 19 21
