# Blender 4.5.3 LTS
# www.blender.org
mtllib Room215.mtl
o RoomVolume
v 0.000000 0.000000 0.000000
v 11.000000 0.000000 0.000000
v 0.000000 0.000000 -9.000000
v 11.000000 0.000000 -9.000000
v 0.000000 0.000000 -8.000000
v 11.000000 0.000000 -8.000000
v 11.000000 0.000000 -1.800000
v 0.000000 0.000000 -1.800000
v 3.200000 0.000000 0.000000
v 8.000000 0.000000 0.000000
v 0.000000 5.800000 -1.800000
v 0.000000 5.800000 0.000000
v 8.000000 5.800000 0.000000
v 11.000000 5.800000 0.000000
v 11.000000 5.800000 -8.000000
v 11.000000 5.800000 -9.000000
v 0.000000 5.800000 -9.000000
v 0.000000 5.800000 -8.000000
v 11.000000 5.800000 -1.800000
v 3.200000 5.800000 0.000000
v 11.000000 5.800000 -1.800000
v 11.000000 5.800000 -8.000000
v 0.000000 5.300000 -8.000000
v 0.000000 5.300000 -1.800000
v 11.000000 5.300000 -1.800000
v 11.000000 5.300000 -8.000000
vn -0.0000 -1.0000 -0.0000
vn -1.0000 -0.0000 -0.0000
vn -0.0000 -0.0000 1.0000
vn 1.0000 -0.0000 -0.0000
vn -0.0000 -0.0000 -1.0000
vn -0.0000 1.0000 -0.0000
vt 0.000000 0.000000
vt 0.000000 0.250000
vt 0.000000 0.500000
vt 0.000000 1.000000
vt 1.000000 1.000000
vt 1.000000 0.500000
vt 1.000000 0.250000
vt 1.000000 0.000000
vt 0.750000 0.000000
vt 0.500000 0.000000
s 0
g RoomVolume_Glass
usemtl Glass
f 8/2/2 1/1/2 12/1/2 11/2/2 24/2/2
f 3/4/2 5/3/2 23/3/2 18/3/2 17/4/2
f 10/9/3 2/8/3 14/8/3 13/9/3
f 1/1/3 9/10/3 20/10/3 12/1/3
f 6/6/4 4/5/4 16/5/4 15/6/4 26/6/4
f 2/8/4 7/7/4 25/7/4 19/7/4 14/8/4
f 4/5/5 3/4/5 17/4/5 16/5/5
g RoomVolume_Plaster
usemtl Plaster
f 21/7/4 25/7/4 7/7/4 6/6/4 26/6/4 22/6/4
f 18/3/2 23/3/2 24/2/2 11/2/2
g RoomVolume_WallAbsorber
usemtl WallAbsorber
f 9/10/3 10/9/3 13/9/3 20/10/3
f 5/3/2 8/2/2 24/2/2 23/3/2
g RoomVolume_Ceiling
usemtl Ceiling
f 18/3/6 11/2/6 12/1/6 20/10/6 13/9/6 14/8/6 19/7/6 21/7/6 22/6/6 15/6/6 16/5/6 17/4/6
g RoomVolume_Pavement
usemtl Pavement
f 1/1/1 8/2/1 5/3/1 3/4/1 4/5/1 6/6/1 7/7/1 2/8/1 10/9/1 9/10/1
